<?xml version="1.0" standalone="no"?><!DOCTYPE svg PUBLIC "-//W3C//DTD SVG 1.1//EN" "http://www.w3.org/Graphics/SVG/1.1/DTD/svg11.dtd"><svg t="1601737933750" class="icon" viewBox="0 0 1246 1024" version="1.1" xmlns="http://www.w3.org/2000/svg" p-id="3366" xmlns:xlink="http://www.w3.org/1999/xlink" width="243.359375" height="200"><defs><style type="text/css"></style></defs><path d="M295.927 955.89l40.71-46.19-37.579 14.092L97.076 382.826 863.511 96.294l83.767 225.467h87.682L915.18 0 0 342.116 255.217 1024l11.743-4.697z" fill="#E2E2E2" p-id="3367"></path><path d="M268.526 292.795v728.074h977.028V292.795H268.526z" fill="#E2E2E2" p-id="3368"></path><path d="M686.581 740.6l-6.263 3.13 3.914 1.567z" fill="#AFD1F9" opacity=".46" p-id="3369"></path><path d="M984.856 584.024l-86.116 45.407 177.713 246.606zM577.761 709.284L429.015 876.037 680.318 743.73z" fill="#FFFFFF" p-id="3370"></path><path d="M680.318 743.73L429.015 876.038h181.627l73.59-130.74z" fill="#AFD1F9" opacity=".46" p-id="3371"></path><path d="M680.318 743.73L429.015 876.038h181.627l73.59-130.74zM814.19 512L686.58 740.6l212.16-111.169z" fill="#FFFFFF" p-id="3372"></path><path d="M1076.453 876.037L898.74 629.43 686.581 740.6l-2.349 4.698z" fill="#AFD1F9" opacity=".46" p-id="3373"></path><path d="M1076.453 876.037L898.74 629.43 686.581 740.6l-2.349 4.698z" fill="#FFFFFF" p-id="3374"></path><path d="M684.232 745.297l-73.59 130.74h465.81z" fill="#AFD1F9" opacity=".46" p-id="3375"></path><path d="M684.232 745.297l-73.59 130.74h465.81z" fill="#AFD1F9" opacity=".46" p-id="3376"></path><path d="M684.232 745.297l-73.59 130.74h465.81zM512.783 457.199h-3.132c-44.623 0-81.419 36.012-81.419 81.419 0 44.624 36.013 81.419 81.42 81.419h3.13V457.199z" fill="#FFFFFF" p-id="3377"></path><path d="M504.171 619.254h3.132c44.624 0 81.419-36.012 81.419-81.42 0-44.623-36.013-81.418-81.42-81.418h-3.13v162.838zM699.89 218.422s68.893-14.092 93.945 18.789c-3.915-19.572 4.697-23.486 51.67-21.138-26.618-14.874-55.585-14.874-64.196-0.782-19.572-15.658-57.933-22.704-81.42 3.131z" fill="#FFFFFF" p-id="3378"></path></svg>