<?xml version="1.0" standalone="no"?><!DOCTYPE svg PUBLIC "-//W3C//DTD SVG 1.1//EN" "http://www.w3.org/Graphics/SVG/1.1/DTD/svg11.dtd"><svg t="1601525376377" class="icon" viewBox="0 0 1024 1024" version="1.1" xmlns="http://www.w3.org/2000/svg" p-id="6388" xmlns:xlink="http://www.w3.org/1999/xlink" width="200" height="200"><defs><style type="text/css"></style></defs><path d="M904.533333 844.8c17.066667 17.066667 17.066667 42.666667 0 59.733333-8.533333 8.533333-17.066667 8.533333-34.133333 8.533334s-17.066667 0-25.6-8.533334L512 571.733333l-332.8 332.8c-8.533333 8.533333-17.066667 8.533333-25.6 8.533334s-25.6 0-34.133333-8.533334c-17.066667-17.066667-17.066667-42.666667 0-59.733333L452.266667 512 119.466667 179.2c-17.066667-17.066667-17.066667-42.666667 0-59.733333 17.066667-17.066667 42.666667-17.066667 59.733333 0L512 452.266667l332.8-332.8c17.066667-17.066667 42.666667-17.066667 59.733333 0 17.066667 17.066667 17.066667 42.666667 0 59.733333L571.733333 512l332.8 332.8z" fill="#333333" p-id="6389"></path></svg>