<?xml version="1.0" standalone="no"?><!DOCTYPE svg PUBLIC "-//W3C//DTD SVG 1.1//EN" "http://www.w3.org/Graphics/SVG/1.1/DTD/svg11.dtd"><svg t="1600376565474" class="icon" viewBox="0 0 1024 1024" version="1.1" xmlns="http://www.w3.org/2000/svg" p-id="3431" xmlns:xlink="http://www.w3.org/1999/xlink" width="200" height="200"><defs><style type="text/css"></style></defs><path d="M1009.846215 331.382093a43.350032 43.350032 0 0 0-61.30417 0L556.469908 723.46868V64.071347a43.350032 43.350032 0 0 0-86.700064 0v659.397333L77.697707 331.382093a43.350032 43.350032 0 0 0-61.30417 61.30417l462.855514 462.862739a43.205532 43.205532 0 0 0 30.655697 12.701559c1.076526 0 2.138602-0.2312 3.215128-0.310675 1.076526 0.079475 2.138602 0.310675 3.215127 0.310675a43.227207 43.227207 0 0 0 30.655698-12.701559l462.855514-462.862739a43.335582 43.335582 0 0 0 0-61.30417zM934.92291 910.581867H82.46621a43.350032 43.350032 0 0 0 0 86.700063h852.4567a43.350032 43.350032 0 0 0 0-86.700063z" fill="#eeeeee" p-id="3432"></path></svg>